<?xml version="1.0" encoding="utf-8"?>
<!-- Generator: Adobe Illustrator 28.1.0, SVG Export Plug-In . SVG Version: 6.00 Build 0)  -->
<svg version="1.1" id="Layer_2_00000169543870855790714150000011091032019426245008_"
	 xmlns="http://www.w3.org/2000/svg" xmlns:xlink="http://www.w3.org/1999/xlink" x="0px" y="0px" viewBox="0 0 139.5 32.2"
	 style="enable-background:new 0 0 139.5 32.2;" xml:space="preserve">
<style type="text/css">
	.st0{fill:#664966;}
	.st1{fill:#684B68;}
</style>
<g id="Layer_1-2">
	<g>
		<path class="st0" d="M88.7,12c-1.1,1.2-1.5,2.6-2,3.8c-1,2.1-2,4.3-3.6,6c-2.7,2.8-5.8,2.9-8.6,0.2c-2.3-2.2-3.4-5.1-4.6-7.9
			c-0.3-0.7-0.4-2.3-1.4-1.9c-0.9,0.3-0.1,1.6,0.2,2.3c0.9,2.6,2,5.1,3.8,7.3c1.1,1.3,2.4,2.5,4.1,3c1,0.3,1.3,0.7,0.8,1.7
			c-0.9,1.6-1.6,3.2-2.3,4.8c-0.3,0.6-0.5,0.9-1.3,0.6c-7-2.8-13.5-12.1-13.3-19.2c0.1-5.7,3.7-9,9.4-8.7C72.9,4.4,75,6,76.3,8.8
			c0.8,1.6,1.1,3.4,1.6,5.1C78,14.3,78,15,78.7,15c0.5,0,0.5-0.6,0.7-1.1c0.4-1.5,0.8-3,1.3-4.4C82,5.7,84.8,3.9,89,4.2
			c3.8,0.2,6.6,2.5,7.4,6.3c0.9,4.4-0.2,8.5-2.6,12.2c-2.5,3.8-5.9,6.7-9.8,9c-1.1,0.6-1.5,0.4-2-0.7c-0.7-1.5-1.4-3-2.2-4.5
			c-0.5-0.9-0.3-1.1,0.6-1.6c5.2-2.5,7.2-7.3,8.5-12.5C89,12.4,88.9,12.3,88.7,12L88.7,12z"/>
		<path class="st0" d="M116.4,18.4c0-3.5,0.1-7,0-10.5c0-1.2,0.4-1.5,1.5-1.5c3.2,0.1,6.4,0,9.6,0c6.9,0.2,11.9,5,12,11.6
			c0.1,7-4.6,12.1-11.6,12.4c-3.4,0.2-6.8,0-10.2,0.1c-1.2,0-1.4-0.5-1.4-1.5C116.4,25.6,116.4,22,116.4,18.4z M125.2,18.1
			c0,1.1,0,2.3,0,3.4c0,0.8,0.2,1.1,1.1,1.2c2.7,0.2,4.6-1.4,4.8-4.1c0.2-2.9-1.4-4.7-4.1-5c-1.4-0.1-2,0.3-1.8,1.8
			C125.3,16.4,125.2,17.3,125.2,18.1L125.2,18.1z"/>
		<path class="st0" d="M98.1,18.4c0-3.4,0-6.9,0-10.3c0-1.2,0.2-1.7,1.6-1.7c4.3,0.1,8.6,0.1,12.9,0c1.2,0,1.6,0.3,1.5,1.5
			c-0.1,1.7,0.5,3.9-0.3,5c-0.9,1.2-3.2,0.3-4.9,0.4c-0.3,0-0.6,0-1,0c-0.7,0-1,0.3-1,1c0,0.8,0.5,0.9,1.1,0.9c1.6,0,3.2,0.1,4.8,0
			c1,0,1.3,0.4,1.3,1.3c0.2,5.1,0.2,5.1-5,5.1c-0.4,0-0.9,0-1.3,0c-0.6,0-0.9,0.2-0.9,0.9c0,0.7,0.2,1,1,1c1.6,0,3.2,0,4.8,0
			c1.1,0,1.4,0.3,1.4,1.4c0.2,5.5,0.2,5.5-5.4,5.5c-2.9,0-5.8-0.1-8.7,0c-1.5,0-2-0.3-2-1.9C98.1,25.3,98.1,21.8,98.1,18.4
			L98.1,18.4z"/>
		<path class="st1" d="M50.9,18.4c0,3.6,0,7.1,0,10.7c0,1.1-0.3,1.6-1.5,1.5c-2.5-0.1-5,0-7.5,0c-3.8-0.1-6.9-1.4-8.6-5
			c-1.5-3.2-0.7-7.6,1.8-10c2.9-2.9,6.5-3.4,10.2-2c2,0.7,2.1,0.2,2-1.4c-0.1-1.3,0.1-2.7,0-4c-0.2-1.7,0.7-1.6,2-1.7
			c1.2,0,1.8,0.2,1.8,1.6C50.8,11.5,50.9,14.9,50.9,18.4L50.9,18.4z M43.7,27.3c2.5,0,3.7-1.2,3.7-3.7c0-0.7,0-1.4,0-2.1
			c-0.2-3.2-2.4-5.2-5.7-5.2c-3.2,0-5.4,2.2-5.5,5.4c-0.1,3.3,1.9,5.4,5.2,5.6C42.2,27.4,42.9,27.3,43.7,27.3z"/>
		<path class="st0" d="M0,18.5c0-3.5,0-7,0-10.5c0-1.1,0.3-1.6,1.5-1.5c1.9,0.1,3.8,0,5.8,0.1c4.5,0.2,7.6,3.2,7.6,7.3
			c0,4.2-3,7-7.5,7.3C5.1,21.2,4,22.4,4,24.6c0,1.3,0.1,2.5,0,3.8c-0.1,1.6-1.8,2.7-3.3,2.2c-0.8-0.3-0.6-0.9-0.6-1.4
			C0,25.6,0,22,0,18.5L0,18.5z M4,13.6c0,0.9,0,1.9,0,2.9c0,0.5,0,1.1,0.7,1.1c1.3,0,2.7,0.2,4-0.4c1.8-0.8,2.6-2.7,2.1-4.6
			c-0.6-2-2.8-3.1-5.8-2.6c-2,0.3-0.6,2.1-1,3.1C3.9,13.2,3.9,13.4,4,13.6L4,13.6z"/>
		<path class="st1" d="M25,23.3c-1.7,0-3.5,0.1-5.2,0c-1.8-0.1-1.6,0.8-1.1,1.9c1.2,2.5,4.4,3.5,6.9,2c0.9-0.5,1.8-0.9,2.9-0.8
			c0.6,0.1,1.5-0.3,1.8,0.2c0.4,0.7-0.5,1.2-0.9,1.7c-2.3,2.5-6.3,3.4-9.6,2c-3.6-1.5-5.2-4.4-5.4-8.1c-0.3-5.2,3.3-9.2,8.3-9.3
			c5.1-0.1,8.8,3.6,8.9,8.8c0,1.2-0.3,1.7-1.6,1.6C28.3,23.3,26.6,23.4,25,23.3C25,23.3,25,23.3,25,23.3L25,23.3z M22.9,20.1
			c1.2,0,2.4,0,3.6,0c1.1,0,1.2-0.5,0.8-1.3c-0.9-1.7-2.3-2.7-4.3-2.7c-2,0-3.4,0.8-4.4,2.6c-0.5,0.9-0.5,1.5,0.8,1.4
			C20.6,20.1,21.8,20.1,22.9,20.1L22.9,20.1z"/>
		<path class="st1" d="M58,22c0,2.4-0.1,4.8,0,7.2c0.1,1.5-0.8,1.5-1.8,1.4c-1,0-2,0.3-2-1.4c0.1-4.8,0.1-9.7,0-14.5
			c0-1.6,0.9-1.4,1.8-1.4c0.9,0,1.9-0.3,1.9,1.3c-0.1,2.4,0,4.8,0,7.2C58,21.9,58,21.9,58,22L58,22z"/>
		<path class="st1" d="M59.4,3.3c0,1.8-1.5,3.3-3.3,3.2c-1.8-0.1-3.2-1.5-3.2-3.4C52.9,1.4,54.3,0,56.1,0C57.9,0,59.4,1.5,59.4,3.3z
			"/>
	</g>
</g>
</svg>
